<svg xmlns="http://www.w3.org/2000/svg" viewBox="0 0 48 48" role="img" aria-label="Pool Eyes">
  <defs>
    <linearGradient id="poolEyesBg" x1="24" y1="0" x2="24" y2="48" gradientUnits="userSpaceOnUse">
      <stop offset="0%" stop-color="#42c8f0"/>
      <stop offset="100%" stop-color="#1684c8"/>
    </linearGradient>
  </defs>
  <rect width="48" height="48" rx="10" fill="url(#poolEyesBg)"/>
  <path d="M24 8c-2.2 0-4 1.6-4 3.6 0 2.4 4 6.4 4 6.4s4-4 4-6.4C28 9.6 26.2 8 24 8z" fill="#fff"/>
  <rect x="8" y="18" width="32" height="22" rx="7" fill="#fff"/>
  <rect x="11" y="21" width="26" height="16" rx="5" fill="#1ec8ee"/>
  <path d="M15 28c3-2 6-2 9 0s6 2 9 0" fill="none" stroke="#fff" stroke-width="2" stroke-linecap="round"/>
  <path d="M15 32c3-2 6-2 9 0s6 2 9 0" fill="none" stroke="#fff" stroke-width="2" stroke-linecap="round"/>
</svg>
